<?xml version="1.0" standalone="no"?>
<!DOCTYPE svg PUBLIC "-//W3C//DTD SVG 20010904//EN"
 "http://www.w3.org/TR/2001/REC-SVG-20010904/DTD/svg10.dtd">
<svg version="1.0" xmlns="http://www.w3.org/2000/svg"
 width="656.000000pt" height="656.000000pt" viewBox="0 0 656.000000 656.000000"
 preserveAspectRatio="xMidYMid meet">
<metadata>
Created by potrace 1.14, written by Peter Selinger 2001-2017
</metadata>
<g transform="translate(0.000000,656.000000) scale(0.100000,-0.100000)"
fill="#000000" stroke="none">
<path d="M1955 6026 c-16 -7 -99 -61 -183 -120 -84 -58 -157 -106 -162 -106
-4 0 -10 -3 -12 -7 -1 -5 -43 -34 -93 -67 -106 -69 -132 -91 -153 -131 -16
-32 -19 -124 -22 -926 -1 -273 -4 -340 -15 -356 -8 -11 -216 -121 -462 -243
-746 -371 -767 -381 -787 -398 -41 -37 -48 -70 -51 -226 -2 -83 -6 -231 -10
-328 -8 -243 -13 -236 210 -353 50 -26 104 -55 120 -65 17 -9 59 -33 95 -52
36 -20 211 -115 388 -212 178 -98 341 -186 362 -197 81 -42 74 14 76 -672 0
-337 2 -622 2 -634 3 -39 59 -79 234 -168 95 -48 200 -102 233 -120 194 -106
235 -123 284 -121 54 3 70 11 486 231 161 85 293 154 420 220 72 37 182 95
245 128 67 35 126 60 141 59 15 -1 51 -15 80 -30 116 -61 289 -153 404 -212
66 -35 165 -86 220 -115 585 -307 544 -288 596 -283 26 3 66 15 90 28 316 165
487 251 495 249 4 0 10 3 13 8 3 5 22 16 41 25 48 22 74 47 88 83 12 29 12
177 0 1098 -2 135 1 170 13 181 12 13 206 126 215 126 1 0 29 15 61 34 32 18
83 47 113 63 30 17 108 60 173 97 64 36 122 66 127 66 6 0 10 5 10 10 0 6 4
10 9 10 5 0 81 39 168 88 87 48 174 96 194 106 70 37 114 72 131 105 15 30 16
71 14 370 -3 348 -4 354 -46 402 -8 10 -285 153 -615 318 -329 165 -605 307
-613 315 -9 9 -15 40 -17 83 -2 37 -6 127 -10 198 -4 72 -9 164 -10 205 -5
120 -15 349 -20 425 -2 39 -7 142 -10 230 -9 222 3 206 -260 371 -356 224
-343 217 -394 221 -50 4 -27 15 -546 -252 -775 -398 -725 -377 -797 -337 -18
10 -136 72 -263 137 -126 65 -288 148 -360 185 -473 246 -524 270 -567 270
-24 -1 -56 -7 -73 -14z m230 -212 c102 -53 304 -157 640 -329 127 -65 272
-140 324 -166 73 -38 104 -49 140 -49 50 0 38 -5 456 209 827 425 779 401 805
401 27 0 480 -281 480 -297 0 -5 -116 -66 -258 -138 -141 -71 -259 -132 -262
-135 -3 -3 -68 -37 -145 -76 -444 -224 -535 -274 -535 -295 0 -22 65 -63 295
-184 50 -26 95 -51 100 -55 6 -4 42 -24 80 -44 39 -20 77 -41 85 -46 8 -5 137
-75 285 -156 408 -221 380 -204 356 -220 -11 -8 -55 -33 -98 -55 -126 -66
-224 -119 -281 -151 -44 -25 -59 -29 -92 -23 -22 4 -40 11 -40 16 0 5 -4 9
-10 9 -8 0 -393 208 -457 247 -13 7 -26 14 -30 14 -5 1 -20 10 -35 20 -14 10
-29 19 -32 19 -3 0 -27 13 -53 28 -26 16 -79 46 -118 66 -86 47 -134 74 -298
164 -71 39 -138 74 -149 78 -62 19 -96 6 -348 -141 -30 -18 -82 -47 -115 -65
-126 -70 -701 -391 -715 -400 -8 -5 -41 -24 -73 -41 -71 -37 -73 -36 -224 54
-60 36 -154 91 -210 123 -56 33 -102 64 -103 71 0 6 12 16 28 22 15 7 56 29
92 49 36 21 139 80 230 132 91 51 179 101 195 111 17 11 37 22 45 26 8 4 48
26 88 50 41 24 75 43 77 43 1 0 53 29 115 65 62 36 114 65 116 65 8 0 132 76
152 94 47 41 44 43 -263 201 -412 212 -460 237 -472 247 -7 6 -13 7 -13 3 0
-4 -6 -3 -12 3 -7 5 -89 49 -183 97 -93 48 -174 91 -178 95 -5 4 6 18 25 31
18 13 35 27 36 31 2 4 7 8 12 8 5 0 86 53 182 119 95 65 182 120 193 123 24 5
53 -6 170 -68z m-549 -370 c71 -36 197 -101 279 -144 258 -134 568 -293 622
-319 l53 -26 -33 -22 c-17 -11 -223 -129 -457 -261 -234 -132 -464 -262 -512
-290 -49 -28 -89 -47 -91 -44 -3 6 -1 1164 2 1170 2 5 13 0 137 -64z m3420
-25 c1 -39 5 -124 8 -188 4 -64 9 -168 11 -231 3 -63 7 -153 10 -200 3 -47 7
-137 10 -200 3 -63 7 -154 10 -202 3 -49 3 -88 1 -88 -2 0 -39 19 -82 43 -44
24 -115 63 -159 87 -188 101 -230 124 -233 132 -2 4 -10 8 -17 8 -7 0 -58 25
-112 56 -54 31 -111 62 -128 70 -16 8 -57 29 -90 48 -110 61 -179 99 -248 136
-38 20 -68 41 -68 46 1 5 61 40 133 77 73 38 273 140 443 227 171 88 353 181
405 208 52 28 97 48 99 46 2 -2 5 -36 7 -75z m-1691 -852 c11 -8 54 -32 95
-54 170 -92 197 -106 235 -128 46 -26 331 -182 420 -230 33 -18 101 -55 150
-82 50 -28 122 -67 160 -88 39 -21 76 -45 83 -53 12 -16 12 -53 -3 -971 -2
-145 -6 -266 -9 -268 -2 -2 -46 18 -97 45 -52 27 -193 100 -314 162 -121 62
-278 143 -350 180 -71 37 -189 98 -262 135 -95 49 -133 74 -137 90 -4 16 -9
948 -6 1243 0 35 6 39 35 19z m-124 -9 c2 -18 6 -455 10 -888 3 -407 5 -394
-65 -427 -36 -17 -387 -195 -926 -469 -90 -46 -169 -84 -175 -84 -6 0 -10 89
-11 263 -1 144 -4 416 -7 605 -5 309 -4 344 11 361 10 11 202 122 427 247 226
125 433 240 460 256 28 16 66 36 85 46 19 9 40 21 45 25 13 11 128 74 138 76
4 0 8 -5 8 -11z m-1713 -380 c31 -17 90 -51 130 -75 41 -24 78 -43 83 -43 5 0
9 -3 9 -8 0 -4 21 -18 48 -32 26 -14 66 -37 88 -52 23 -16 46 -28 51 -28 19 0
37 -49 39 -110 6 -155 16 -647 19 -905 3 -283 9 -325 43 -352 9 -7 69 -38 132
-70 63 -31 306 -150 538 -264 233 -115 438 -216 455 -224 78 -38 72 -14 83
-345 4 -113 8 -227 9 -255 1 -27 0 -53 -2 -57 -2 -4 -30 6 -61 22 -59 30 -282
137 -457 220 -92 44 -191 91 -510 245 -66 32 -132 61 -148 66 -47 13 -56 -15
-62 -192 -3 -85 -8 -221 -11 -304 -3 -82 -7 -199 -9 -260 -8 -273 -17 -460
-22 -465 -2 -3 -50 19 -106 48 -56 29 -177 92 -269 138 -136 70 -168 91 -175
112 -5 15 -8 295 -7 622 l1 595 -23 50 c-20 43 -32 55 -86 84 -179 95 -215
115 -243 131 -16 10 -61 34 -100 55 -38 21 -108 59 -155 85 -47 26 -121 66
-165 90 -44 23 -102 55 -130 70 -27 15 -113 62 -190 105 -77 42 -145 84 -152
92 -8 11 -10 62 -7 182 8 274 12 352 17 358 6 5 130 -56 422 -207 461 -238
702 -356 722 -353 32 6 32 4 48 253 3 41 7 118 10 170 4 52 8 124 10 160 3 36
7 108 10 160 2 52 7 127 10 165 2 39 7 120 10 180 11 197 10 195 103 143z
m3608 -31 c1 -23 4 -85 8 -137 4 -52 9 -126 11 -165 9 -135 15 -231 20 -300 3
-38 7 -110 10 -160 2 -49 7 -135 11 -190 3 -55 7 -125 8 -155 5 -108 29 -117
141 -56 33 19 90 50 128 70 37 20 97 52 135 72 37 20 99 54 139 75 40 22 98
53 130 70 32 17 65 34 73 39 23 14 211 115 318 172 53 28 103 55 110 61 14 11
12 34 18 -258 6 -323 7 -307 -13 -326 -16 -16 -172 -106 -384 -222 -37 -20
-135 -75 -219 -122 -83 -47 -154 -85 -156 -85 -2 0 -21 -10 -42 -23 -20 -13
-77 -45 -127 -71 -172 -92 -246 -140 -267 -175 -24 -38 -23 35 -13 -861 4
-340 2 -408 -10 -426 -8 -12 -76 -54 -152 -92 -76 -39 -191 -97 -257 -131 -65
-33 -123 -58 -127 -55 -5 3 -8 15 -8 27 0 12 -2 72 -5 132 -4 61 -8 157 -11
215 -2 58 -7 148 -10 200 -6 124 -14 286 -21 435 -9 208 -11 214 -56 215 -20
0 -151 -61 -156 -72 -2 -4 -8 -8 -12 -8 -11 0 -148 -65 -485 -230 -326 -159
-514 -250 -520 -250 -3 0 -4 10 -4 23 1 12 -2 58 -5 102 -10 134 -16 436 -10
461 5 20 102 72 610 325 484 241 608 306 628 332 l24 32 2 290 c5 898 7 973
21 988 13 12 271 155 323 178 11 5 57 29 101 54 44 24 85 44 90 45 6 0 10 -19
11 -43z m631 -260 c298 -149 542 -276 542 -282 1 -10 -20 -23 -167 -102 -48
-26 -105 -57 -127 -70 -22 -12 -47 -26 -55 -30 -8 -3 -116 -61 -240 -128 -124
-67 -265 -144 -315 -170 -49 -26 -96 -52 -102 -58 -9 -6 -13 -5 -14 4 -4 38
-20 274 -34 504 -2 39 -7 115 -11 170 -6 106 -8 131 -19 318 -4 64 -5 117 -3
117 1 0 247 -123 545 -273z m-4421 176 c-9 -149 -16 -245 -21 -318 -2 -38 -7
-117 -10 -175 -3 -58 -8 -130 -10 -160 -3 -30 -8 -104 -11 -165 -7 -121 -12
-199 -13 -202 -1 -2 -70 32 -153 76 -84 43 -263 135 -398 204 -464 238 -509
262 -504 266 7 7 1108 559 1117 560 4 0 5 -38 3 -86z m2026 -883 c23 -11 106
-53 183 -93 77 -40 255 -132 395 -204 140 -73 302 -157 360 -188 58 -31 113
-59 123 -62 9 -3 17 -8 17 -12 0 -13 -1135 -574 -1160 -573 -14 0 -108 42
-210 93 -102 50 -358 177 -570 281 -352 174 -383 191 -365 204 10 8 23 14 28
14 5 0 21 8 35 19 15 10 52 29 82 42 30 12 57 26 60 29 3 4 43 26 90 49 47 24
236 120 420 214 184 94 355 181 380 194 49 24 66 23 132 -7z m-1100 -1444
c106 -50 260 -124 528 -253 102 -49 231 -111 288 -138 56 -27 102 -51 102 -54
0 -4 -33 -23 -72 -44 -168 -86 -501 -260 -858 -447 -91 -47 -173 -89 -182 -92
-15 -6 -17 2 -13 95 3 56 7 179 10 272 4 158 12 358 20 565 2 47 3 106 4 133
l1 47 39 -20 c22 -11 82 -40 133 -64z m2217 32 c1 -29 4 -84 6 -123 2 -38 6
-126 10 -195 3 -69 8 -168 10 -220 3 -52 7 -140 10 -195 2 -55 7 -153 10 -217
4 -65 3 -118 -1 -118 -6 0 -161 79 -439 225 -55 29 -154 81 -220 115 -66 35
-151 80 -190 100 -38 21 -116 61 -172 89 -57 29 -105 56 -108 61 -3 5 41 31
97 58 294 142 536 260 738 360 124 61 230 111 236 111 6 1 12 -21 13 -51z"/>
</g>
</svg>
