<svg width="82" height="69" viewBox="0 0 82 69" fill="none" xmlns="http://www.w3.org/2000/svg">
<g id="LOGO IMG" clip-path="url(#clip0_74_32)">
<path id="Vector" d="M15.675 55.9926C15.675 53.5552 15.6592 51.1191 15.6882 48.6817C15.6935 48.1911 15.5061 47.9325 15.0575 47.6884C10.4262 45.1713 5.81872 42.6167 1.17688 40.1165C0.278335 39.632 -0.0475693 39.0519 0.00520879 38.1069C0.135835 35.7747 0.191252 33.4377 0.213682 31.1018C0.222918 30.1907 0.587087 29.6239 1.47772 29.1865C6.3399 26.7987 11.1731 24.3613 16.026 21.959C16.4509 21.7487 16.6066 21.5155 16.6092 21.0732C16.6277 16.2191 16.6844 11.3661 16.691 6.51195C16.691 5.68299 16.9971 5.11987 17.736 4.63892C19.7772 3.30726 21.8012 1.95143 23.7831 0.546052C24.7304 -0.125822 25.5643 -0.174159 26.612 0.37325C31.2327 2.78765 35.889 5.14283 40.5177 7.54152C40.9663 7.77353 41.2843 7.74936 41.7118 7.52943C46.3681 5.13316 51.0469 2.77314 55.6901 0.356332C56.6467 -0.141531 57.3856 -0.120989 58.2749 0.474756C60.1907 1.75808 62.162 2.97253 64.1332 4.18456C64.8035 4.59663 65.0727 5.11383 65.1057 5.84491C65.33 10.9359 65.5925 16.0245 65.8248 21.1143C65.8446 21.5482 66.0082 21.791 66.4304 22.0013C71.1408 24.3492 75.8275 26.737 80.5512 29.0632C81.5276 29.5442 81.9432 30.1339 81.926 31.1586C81.8851 33.5537 81.934 35.9524 81.9973 38.3474C82.0184 39.1703 81.6872 39.6912 80.9193 40.1141C76.3237 42.6469 71.7504 45.2148 67.1587 47.7537C66.7286 47.9917 66.5689 48.2431 66.5755 48.7095C66.6455 53.5431 66.6719 58.3755 66.7497 63.2092C66.7642 64.0768 66.4515 64.6339 65.6031 65.0544C63.2439 66.2217 60.9045 67.4229 58.5902 68.6627C57.7497 69.1134 57.0531 69.1074 56.206 68.6591C51.4309 66.1299 46.6241 63.6478 41.8424 61.1283C41.378 60.8842 41.0428 60.8963 40.5876 61.1355C35.8613 63.6224 31.1087 66.0683 26.3956 68.5781C25.4126 69.1014 24.6262 69.0965 23.659 68.5636C21.4186 67.3286 19.1373 66.1541 16.8361 65.0145C15.96 64.5807 15.6447 64.0043 15.6592 63.1198C15.7001 60.744 15.6724 58.3671 15.6737 55.9902L15.675 55.9926ZM40.6971 58.6354C40.6971 58.3345 40.7037 58.1411 40.6971 57.949C40.618 55.7364 40.5216 53.5238 40.4675 51.31C40.457 50.8822 40.2762 50.6744 39.8857 50.4822C35.2544 48.2128 30.6389 45.9169 25.9997 43.662C25.2846 43.314 25.0036 42.8922 24.9943 42.1491C24.931 37.1161 24.8281 32.083 24.712 27.0512C24.7067 26.8035 24.5246 26.4639 24.3056 26.331C22.4742 25.2181 20.6164 24.1414 18.7625 23.0599C18.1912 22.7264 17.9867 22.8073 17.9273 23.4296C17.8455 24.2912 17.8086 25.1565 17.7558 26.0205C17.5645 29.1949 17.3784 32.3694 17.1832 35.5439C17.1304 36.4079 17.0789 37.2719 16.98 38.1323C16.9193 38.6592 16.5775 38.8066 16.0458 38.5963C15.9046 38.5408 15.774 38.4634 15.6407 38.3945C11.3855 36.2073 7.13157 34.0201 2.87502 31.8353C2.69293 31.7411 2.49897 31.6661 2.25092 31.5562C2.22585 31.7858 2.19682 31.9392 2.19286 32.0939C2.13349 34.0262 2.08994 35.9584 2.00946 37.8894C1.99098 38.3124 2.15328 38.5323 2.53988 38.7426C7.18831 41.2718 11.8143 43.8336 16.4759 46.341C17.3705 46.8232 17.7083 47.4129 17.7017 48.3434C17.6687 53.1359 17.6925 57.9272 17.6766 62.7198C17.6753 63.1765 17.8099 63.4412 18.2651 63.6696C20.21 64.6472 22.1311 65.6683 24.0615 66.6712C24.2541 66.7715 24.4586 66.8537 24.7317 66.977C24.9072 62.0902 25.084 57.3218 25.2477 52.5547C25.2833 51.5142 25.5498 51.3535 26.5513 51.8344C30.2484 53.612 33.9442 55.392 37.6413 57.1696C38.6269 57.6432 39.6138 58.1145 40.6998 58.6354H40.6971ZM64.1491 23.0562C63.8891 23.1783 63.6939 23.2593 63.5104 23.3583C61.6698 24.3432 59.8397 25.3462 57.9846 26.3081C57.5742 26.5207 57.4687 26.7673 57.466 27.1697C57.4265 32.1628 57.3565 37.1559 57.3301 42.1503C57.3262 42.8306 57.0491 43.204 56.4105 43.5206C51.6143 45.8927 46.8392 48.2986 42.0456 50.6744C41.6102 50.8907 41.4716 51.1311 41.4914 51.5698C41.5666 53.2193 41.5957 54.87 41.655 56.5194C41.6788 57.1708 41.7408 57.8197 41.7896 58.5496C42.5721 58.1713 43.2687 57.8366 43.9628 57.4982C47.9409 55.5612 51.9177 53.6229 55.8972 51.687C56.6625 51.3148 57.0385 51.4647 57.0728 52.1595C57.2971 56.7841 57.5162 61.4086 57.7392 66.0332C57.7524 66.3087 57.7933 66.5843 57.8302 66.9407C58.1152 66.8006 58.3237 66.7003 58.5282 66.5963C60.3886 65.6429 62.2372 64.6713 64.1134 63.7445C64.6122 63.498 64.76 63.2104 64.7521 62.7029C64.6848 57.9309 64.6676 53.1589 64.5845 48.3869C64.5686 47.4491 64.9157 46.8667 65.7997 46.3809C70.3822 43.8698 74.9316 41.3068 79.5035 38.7776C79.8901 38.5637 80.0392 38.3377 80.0274 37.9196C79.9706 35.846 79.9508 33.7724 79.9165 31.6988C79.9139 31.5465 79.8888 31.393 79.8664 31.1526C78.8385 31.7048 77.878 32.2208 76.9187 32.738C73.3773 34.6485 69.8359 36.5602 66.2932 38.4683C65.5384 38.8743 65.1466 38.7365 65.103 38.0453C64.8761 34.3887 64.6597 30.732 64.4314 27.0754C64.3496 25.7582 64.2467 24.4423 64.1491 23.0575V23.0562ZM19.2217 22.1802C19.5001 22.3578 19.673 22.475 19.8537 22.5813C21.4635 23.5263 23.0837 24.4568 24.6776 25.4235C25.0893 25.6737 25.3809 25.6628 25.7952 25.4296C30.5901 22.7348 35.4074 20.0727 40.1918 17.361C40.9201 16.949 41.4532 16.9719 42.1643 17.3671C46.9935 20.0497 51.8491 22.6913 56.6862 25.3619C57.0808 25.5794 57.3658 25.5818 57.7576 25.3655C59.3581 24.4834 60.9797 23.6351 62.5921 22.7711C62.7755 22.6732 62.9484 22.5572 63.1819 22.4158C62.9378 22.2744 62.7597 22.1656 62.575 22.0654C57.9292 19.5337 53.2821 17.0033 48.6363 14.4717C47.6585 13.9388 47.6638 13.6174 48.6587 13.1038C51.8386 11.4664 55.0198 9.83145 58.201 8.19647C59.787 7.3808 61.3729 6.56633 63.0223 5.71924C62.7834 5.55731 62.6119 5.43647 62.4351 5.32409C60.7713 4.27157 59.0969 3.23355 57.4476 2.1629C57.0478 1.90309 56.7575 1.90068 56.3313 2.1206C51.6393 4.53742 46.9263 6.9204 42.2396 9.34446C41.4347 9.76015 40.7671 9.74565 39.9688 9.33237C35.2847 6.90227 30.5756 4.51325 25.8902 2.08556C25.4284 1.8463 25.1421 1.88013 24.737 2.16411C23.1827 3.25167 21.598 4.30178 20.0253 5.36759C19.8353 5.49568 19.6558 5.63586 19.4196 5.80745C19.6598 5.94159 19.8392 6.04793 20.0239 6.14339C24.4085 8.40553 28.793 10.6665 33.1776 12.9298C34.0853 13.3987 34.0999 13.7479 33.2185 14.2506C31.11 15.4517 28.9962 16.6456 26.8838 17.842C24.3623 19.2703 21.8408 20.6999 19.2257 22.1826L19.2217 22.1802ZM56.2323 41.9219C56.2548 41.7285 56.2706 41.6488 56.2719 41.569C56.3511 36.6387 56.4224 31.7084 56.5174 26.7793C56.5253 26.3709 56.293 26.2211 55.9803 26.0495C51.4348 23.5638 46.8919 21.072 42.3491 18.5827C42.1314 18.4631 41.9071 18.3555 41.6326 18.2154C41.6128 18.4172 41.5917 18.5344 41.5917 18.6516C41.6089 23.7438 41.6313 28.8348 41.6352 33.9271C41.6352 34.3113 41.8055 34.4974 42.1446 34.6714C45.2901 36.281 48.4265 37.9027 51.5668 39.5208C53.0934 40.3075 54.6213 41.0917 56.2337 41.9219H56.2323ZM25.943 41.9666C26.2795 41.8228 26.418 41.7745 26.5447 41.7092C31.0744 39.3999 35.5988 37.0846 40.1364 34.7887C40.6074 34.5506 40.6852 34.2352 40.6813 33.8014C40.6325 28.8312 40.5982 23.861 40.5559 18.8909C40.5546 18.7241 40.5269 18.5573 40.5058 18.3459C40.3382 18.4196 40.2366 18.4558 40.1456 18.5066C35.4932 21.1023 30.8461 23.7052 26.1845 26.2875C25.782 26.5111 25.7596 26.7866 25.7662 27.1407C25.8295 30.8227 25.8902 34.5047 25.9404 38.1855C25.9575 39.4036 25.943 40.6228 25.943 41.9666ZM26.5394 42.804C26.7584 42.9297 26.8996 43.0215 27.0513 43.0965C31.5586 45.3199 36.0672 47.5373 40.5705 49.7693C41.0032 49.9844 41.3555 49.9759 41.7909 49.756C45.7361 47.7669 49.6945 45.7972 53.6475 43.8203C54.3125 43.488 54.9736 43.1508 55.7164 42.7762C55.4961 42.6445 55.3773 42.5635 55.2507 42.4971C50.7316 40.1673 46.2098 37.8447 41.6986 35.5028C41.2962 35.2938 41.0164 35.3941 40.6734 35.5693C36.2242 37.8471 31.7697 40.1165 27.3179 42.3895C27.0751 42.514 26.8363 42.6457 26.5407 42.8028L26.5394 42.804ZM49.3936 13.7999C54.2505 16.4426 58.9847 19.019 63.8641 21.6738C63.6239 16.6311 63.3917 11.7383 63.1542 6.72947C58.5308 9.10519 54.017 11.4241 49.3936 13.7999ZM32.403 13.6065C27.7876 11.2272 23.2909 8.90943 18.6741 6.52887V21.3862C23.2698 18.7821 27.7797 16.2263 32.403 13.6065ZM42.3675 59.3362C47.2179 61.8666 51.956 64.339 56.776 66.8549C56.5424 62.0624 56.3155 57.3992 56.0846 52.6537C51.4797 54.8965 46.9869 57.085 42.3675 59.335V59.3362ZM26.2491 52.7516C26.0868 57.468 25.9285 62.0684 25.7662 66.7957C30.5716 64.2883 35.2359 61.8545 40.0031 59.3676C35.3876 57.1478 30.8738 54.9763 26.2491 52.7516ZM16.9021 23.5807C12.1231 25.9637 7.47067 28.285 2.69029 30.668C7.18567 32.9748 11.5544 35.2176 16.0234 37.5112C16.3189 32.8298 16.6052 28.279 16.9021 23.5795V23.5807ZM65.2125 23.449C65.5068 28.1896 65.7931 32.7875 66.086 37.4955C70.4666 35.1294 74.7535 32.8141 79.1394 30.4444C74.45 28.0893 69.9006 25.803 65.2139 23.4478L65.2125 23.449Z" fill="white"/>
</g>
<defs>
<clipPath id="clip0_74_32">
<rect width="82" height="69" fill="white"/>
</clipPath>
</defs>
</svg>
